<svg version="1.2" xmlns="http://www.w3.org/2000/svg" viewBox="0 0 128 128" width="500" height="500">
	<style>
		.s0 { fill: #ffffff } 
	</style>
	<path class="s0" d="m56.79 84.97c-12.37-1.5-21.09-10.41-21.09-21.94 0-4.69 1.69-9.75 4.5-13.12-1.22-3.1-1.03-9.66 0.38-12.38 3.75-0.47 8.81 1.5 11.81 4.22 3.56-1.12 7.31-1.69 11.9-1.69 4.6 0 8.35 0.57 11.72 1.6 2.91-2.63 8.07-4.6 11.82-4.13 1.31 2.53 1.5 9.1 0.28 12.28 3 3.57 4.59 8.35 4.59 13.22 0 11.53-8.72 20.25-21.28 21.85 3.19 2.06 5.34 6.56 5.34 11.71v9.75c0 2.82 2.35 4.41 5.16 3.29 16.97-6.47 30.28-23.44 30.28-44.44 0-26.53-21.56-48.19-48.09-48.19-26.53 0-47.91 21.66-47.91 48.19 0 20.81 13.22 38.06 31.03 44.53 2.53 0.94 4.97-0.75 4.97-3.28v-7.5c-1.31 0.56-3 0.93-4.5 0.93-6.19 0-9.84-3.37-12.47-9.65-1.03-2.53-2.15-4.03-4.31-4.31-1.13-0.1-1.5-0.57-1.5-1.13 0-1.12 1.87-1.97 3.75-1.97 2.72 0 5.06 1.69 7.5 5.16 1.87 2.72 3.84 3.94 6.19 3.94 2.34 0 3.84-0.85 6-3 1.59-1.6 2.81-3 3.93-3.94z"/>
</svg>